<svg xmlns="http://www.w3.org/2000/svg" data-name="Your Icon" viewBox="0 0 89.3 99.225" x="0px" y="0px" ><path data-name="Path 19" d="M50,90.7h-.4a3,3,0,0,1-2.38-2.17L39.08,44.19,6.36,16.28a2.72,2.72,0,0,1-.79-3.17,2.56,2.56,0,0,1,2.57-1.78H91.83a2.74,2.74,0,0,1,2.38,1.38,2.36,2.36,0,0,1,0,2.77L52.37,89.32A2.52,2.52,0,0,1,50,90.7Zm-34.11-74L43.64,40.23a2.66,2.66,0,0,1,1,1.58l6.94,37.81,35.7-62.95Z" transform="translate(-5.35 -11.32)"/><path data-name="Path 20" d="M42,46a2.63,2.63,0,0,1-2.27-1.48,2.79,2.79,0,0,1,.81-3.71l.24-.14L90,12.44a2.59,2.59,0,0,1,3.63,1.1,2.93,2.93,0,0,1-1,3.85h0L43.3,45.84A3.61,3.61,0,0,1,42,46Z" transform="translate(-5.35 -11.32)"/><text x="0" y="94.38" fill="#000000" font-size="5px" font-weight="bold" font-family="'Helvetica Neue', Helvetica, Arial-Unicode, Arial, Sans-serif"></text></svg>